<?xml version="1.0" encoding="utf-8"?>
<!-- Generator: Adobe Illustrator 16.0.0, SVG Export Plug-In . SVG Version: 6.00 Build 0)  -->
<!DOCTYPE svg PUBLIC "-//W3C//DTD SVG 1.1//EN" "http://www.w3.org/Graphics/SVG/1.1/DTD/svg11.dtd">
<svg version="1.1" id="Layer_1" xmlns="http://www.w3.org/2000/svg" xmlns:xlink="http://www.w3.org/1999/xlink" x="0px" y="0px"
	 width="64px" height="64px" viewBox="0 0 64 64" enable-background="new 0 0 64 64" xml:space="preserve">
<g>
	<line fill="none" stroke="#000000" stroke-width="2" stroke-miterlimit="10" x1="46" y1="10" x2="18" y2="10"/>
	<polyline fill="none" stroke="#000000" stroke-width="2" stroke-miterlimit="10" points="12,10 1,10 1,58 63,58 63,10 52,10 	"/>
	<rect x="12" y="6" fill="none" stroke="#000000" stroke-width="2" stroke-miterlimit="10" width="6" height="8"/>
	<rect x="46" y="6" fill="none" stroke="#000000" stroke-width="2" stroke-miterlimit="10" width="6" height="8"/>
</g>
<line fill="none" stroke="#000000" stroke-width="2" stroke-miterlimit="10" x1="1" y1="18" x2="63" y2="18"/>
<path fill="none" stroke="#000000" stroke-width="2" stroke-miterlimit="10" d="M22,35c0,6.666,10,12,10,12s10-5.334,10-12
	c0-2.762-2-5-5-5c-2.762,0-5,2.238-5,5c0-2.762-2.238-5-5-5C24,30,22,32.238,22,35z"/>
</svg>
