<?xml version="1.0" encoding="utf-8"?>
<!-- Generator: Adobe Illustrator 16.0.0, SVG Export Plug-In . SVG Version: 6.00 Build 0)  -->
<!DOCTYPE svg PUBLIC "-//W3C//DTD SVG 1.1//EN" "http://www.w3.org/Graphics/SVG/1.1/DTD/svg11.dtd">
<svg version="1.1" id="Layer_1" xmlns="http://www.w3.org/2000/svg" xmlns:xlink="http://www.w3.org/1999/xlink" x="0px" y="0px"
	 width="64px" height="64px" viewBox="0 0 64 64" enable-background="new 0 0 64 64" xml:space="preserve">
<path fill="none" stroke="#000000" stroke-width="2" stroke-miterlimit="10" d="M37.004,32.166c1.224,0.533,2.576,0.829,3.997,0.828
	c3.271-0.003,6.175-1.576,7.998-4.006L60.99,16.98c1.255-1.673,1.998-3.751,1.996-6.002c-0.003-5.522-4.484-9.997-10.007-9.993
	c-2.251,0.002-4.327,0.747-5.999,2.004L33.989,15.998c-1.768,1.805-2.997,4.277-2.996,7.003c0.001,1.424,0.3,2.778,0.837,4.003"/>
<path fill="none" stroke="#000000" stroke-width="2" stroke-miterlimit="10" d="M37.004,32.166"/>
<path fill="none" stroke="#000000" stroke-width="2" stroke-miterlimit="10" d="M31.831,27.004c0.053,0.121,0.107,0.24,0.166,0.358"
	/>
<path fill="none" stroke="#000000" stroke-width="2" stroke-miterlimit="10" d="M26.997,31.836c-1.225-0.535-2.577-0.831-3.998-0.83
	c-2.251,0.002-4.328,0.747-5.999,2.004L4.01,46.02c-1.768,1.804-2.997,4.276-2.995,7.002c0.003,5.522,4.484,9.997,10.007,9.993
	c3.271-0.003,6.174-1.576,7.997-4.006L31.01,47.001c1.255-1.673,1.998-3.751,1.996-6.002c-0.001-1.422-0.299-2.774-0.835-3.998"/>
<line fill="none" stroke="#000000" stroke-width="2" stroke-miterlimit="10" x1="23.006" y1="41.006" x2="40.994" y2="22.994"/>
</svg>
