<?xml version="1.0" encoding="utf-8"?>
<!-- Generator: Adobe Illustrator 16.0.0, SVG Export Plug-In . SVG Version: 6.00 Build 0)  -->
<!DOCTYPE svg PUBLIC "-//W3C//DTD SVG 1.1//EN" "http://www.w3.org/Graphics/SVG/1.1/DTD/svg11.dtd">
<svg version="1.1" id="Layer_1" xmlns="http://www.w3.org/2000/svg" xmlns:xlink="http://www.w3.org/1999/xlink" x="0px" y="0px"
	 width="64px" height="64px" viewBox="0 0 64 64" enable-background="new 0 0 64 64" xml:space="preserve">
<line fill="none" stroke="#000000" stroke-width="2" stroke-miterlimit="10" x1="36" y1="34" x2="41" y2="39"/>
<rect x="46.257" y="35.065" transform="matrix(-0.7071 0.7071 -0.7071 -0.7071 120.5036 47.0858)" fill="none" stroke="#000000" stroke-width="2" stroke-miterlimit="10" width="8.485" height="26.87"/>
<polygon fill="none" stroke="#000000" stroke-width="2" stroke-miterlimit="10" points="12,16 18,10 8,4 6,6 "/>
<line fill="none" stroke="#000000" stroke-width="2" stroke-miterlimit="10" x1="28" y1="26" x2="15" y2="13"/>
<path fill="none" stroke="#000000" stroke-width="2" stroke-miterlimit="10" d="M58,12.5l-8,3.75l-4-4.125l3.5-8.062l0,0
	C39.5,4.062,37,9,37,14v4L3.5,52l-1.75,6l2.125,2l6.062-1.5L44,25h4C53,25,58,22.5,58,12.5L58,12.5z"/>
</svg>
