<?xml version="1.0" encoding="utf-8"?>
<!-- Generator: Adobe Illustrator 16.0.0, SVG Export Plug-In . SVG Version: 6.00 Build 0)  -->
<!DOCTYPE svg PUBLIC "-//W3C//DTD SVG 1.1//EN" "http://www.w3.org/Graphics/SVG/1.1/DTD/svg11.dtd">
<svg version="1.1" id="Layer_1" xmlns="http://www.w3.org/2000/svg" xmlns:xlink="http://www.w3.org/1999/xlink" x="0px" y="0px"
	 width="64px" height="64px" viewBox="0 0 64 64" enable-background="new 0 0 64 64" xml:space="preserve">
<polyline fill="none" stroke="#000000" stroke-width="2" stroke-miterlimit="10" points="32,12 32,32 41,41 "/>
<line fill="none" stroke="#000000" stroke-width="2" stroke-miterlimit="10" x1="4" y1="32" x2="8" y2="32"/>
<line fill="none" stroke="#000000" stroke-width="2" stroke-miterlimit="10" x1="56" y1="32" x2="60" y2="32"/>
<line fill="none" stroke="#000000" stroke-width="2" stroke-miterlimit="10" x1="32" y1="60" x2="32" y2="56"/>
<line fill="none" stroke="#000000" stroke-width="2" stroke-miterlimit="10" x1="32" y1="8" x2="32" y2="4"/>
<path fill="none" stroke="#000000" stroke-width="2" stroke-miterlimit="10" d="M32,63C14.879,63,1,49.121,1,32S14.879,1,32,1"/>
<path fill="none" stroke="#000000" stroke-width="2" stroke-miterlimit="10" d="M32,63c17.121,0,31-13.879,31-31
	c0-6.713-2.134-12.926-5.759-18l-5.62-5.621"/>
<polyline fill="none" stroke="#000000" stroke-width="2" stroke-linejoin="bevel" stroke-miterlimit="10" points="51,19 51,8 62,8 
	"/>
</svg>
