<?xml version="1.0" encoding="utf-8"?>
<!-- Generator: Adobe Illustrator 16.0.0, SVG Export Plug-In . SVG Version: 6.00 Build 0)  -->
<!DOCTYPE svg PUBLIC "-//W3C//DTD SVG 1.1//EN" "http://www.w3.org/Graphics/SVG/1.1/DTD/svg11.dtd">
<svg version="1.1" id="Layer_1" xmlns="http://www.w3.org/2000/svg" xmlns:xlink="http://www.w3.org/1999/xlink" x="0px" y="0px"
	 width="64px" height="64px" viewBox="0 0 64 64" enable-background="new 0 0 64 64" xml:space="preserve">
<path fill="none" stroke="#000000" stroke-width="2" stroke-miterlimit="10" d="M34.887,28H39c1.887,0,3-1,3-3c0-1-1-3-3-3
	c0-3.604-3.277-6-7-6c-3.295,0-6.413,2.978-7,6l0,0c-2,0-3,2-3,3c0,2,1,3,3,3h10.434"/>
<g>
	<polyline fill="none" stroke="#000000" stroke-width="2" stroke-miterlimit="10" points="1,26 32,45.434 63,26 	"/>
	<polyline fill="none" stroke="#000000" stroke-width="2" stroke-miterlimit="10" points="11.334,21.667 1,26 1,63 63,63 63,26 
		63,26 52.666,21.667 	"/>
	<polyline fill="none" stroke="#000000" stroke-width="2" stroke-miterlimit="10" points="11,32 11,1 53,1 53,32 	"/>
</g>
</svg>
