<?xml version="1.0" encoding="utf-8"?>
<!-- Generator: Adobe Illustrator 16.0.0, SVG Export Plug-In . SVG Version: 6.00 Build 0)  -->
<!DOCTYPE svg PUBLIC "-//W3C//DTD SVG 1.1//EN" "http://www.w3.org/Graphics/SVG/1.1/DTD/svg11.dtd">
<svg version="1.1" id="Layer_1" xmlns="http://www.w3.org/2000/svg" xmlns:xlink="http://www.w3.org/1999/xlink" x="0px" y="0px"
	 width="64px" height="64px" viewBox="0 0 64 64" enable-background="new 0 0 64 64" xml:space="preserve">
<path fill="none" stroke="#000000" stroke-width="2" stroke-miterlimit="10" d="M21,40v5h22l0.001-5.107C49,36.195,53,29.564,53,22
	c0-11.598-9.402-21-21-21s-21,9.402-21,21C11,29.565,14.998,36.304,21,40z"/>
<line fill="none" stroke="#000000" stroke-width="2" stroke-miterlimit="10" x1="28" y1="45" x2="25" y2="25"/>
<line fill="none" stroke="#000000" stroke-width="2" stroke-miterlimit="10" x1="36" y1="45" x2="39" y2="25"/>
<polyline fill="none" stroke="#000000" stroke-width="2" stroke-miterlimit="10" points="25,26 29,29 32,26 35,29 39,26 "/>
<rect x="21" y="45" fill="none" stroke="#000000" stroke-width="2" stroke-miterlimit="10" width="22" height="6"/>
<rect x="23" y="51" fill="none" stroke="#000000" stroke-width="2" stroke-miterlimit="10" width="18" height="6"/>
<rect x="25" y="57" fill="none" stroke="#000000" stroke-width="2" stroke-miterlimit="10" width="14" height="6"/>
</svg>
