<?xml version="1.0" encoding="utf-8"?>
<!-- Generator: Adobe Illustrator 16.0.0, SVG Export Plug-In . SVG Version: 6.00 Build 0)  -->
<!DOCTYPE svg PUBLIC "-//W3C//DTD SVG 1.1//EN" "http://www.w3.org/Graphics/SVG/1.1/DTD/svg11.dtd">
<svg version="1.1" id="Layer_1" xmlns="http://www.w3.org/2000/svg" xmlns:xlink="http://www.w3.org/1999/xlink" x="0px" y="0px"
	 width="64px" height="64px" viewBox="0 0 64 64" enable-background="new 0 0 64 64" xml:space="preserve">
<g>
	<path fill="none" stroke="#000000" stroke-width="2" stroke-miterlimit="10" d="M51.799,15.202
		c10.936,10.933,10.936,28.662,0,39.595c-10.935,10.938-28.664,10.938-39.598,0c-10.935-10.933-10.935-28.662,0-39.595
		C23.135,4.266,40.864,4.266,51.799,15.202z"/>
	<polyline fill="none" stroke="#000000" stroke-width="2" stroke-miterlimit="10" points="32,7 32,1 38,1 	"/>
	<line fill="none" stroke="#000000" stroke-width="2" stroke-miterlimit="10" x1="26" y1="1" x2="32" y2="1"/>
	<line fill="none" stroke="#000000" stroke-width="2" stroke-miterlimit="10" x1="32" y1="63" x2="32" y2="59"/>
	<line fill="none" stroke="#000000" stroke-width="2" stroke-miterlimit="10" x1="32" y1="11" x2="32" y2="7"/>
	<line fill="none" stroke="#000000" stroke-width="2" stroke-miterlimit="10" x1="4" y1="35" x2="8" y2="35"/>
	<line fill="none" stroke="#000000" stroke-width="2" stroke-miterlimit="10" x1="56" y1="35" x2="60" y2="35"/>
	<line fill="none" stroke="#000000" stroke-width="2" stroke-miterlimit="10" x1="14.564" y1="17.565" x2="17.394" y2="20.394"/>
	<line fill="none" stroke="#000000" stroke-width="2" stroke-miterlimit="10" x1="46.606" y1="49.606" x2="49.436" y2="52.436"/>
	<line fill="none" stroke="#000000" stroke-width="2" stroke-miterlimit="10" x1="49.436" y1="17.565" x2="46.607" y2="20.394"/>
	<line fill="none" stroke="#000000" stroke-width="2" stroke-miterlimit="10" x1="17.395" y1="49.606" x2="14.564" y2="52.436"/>
	<line fill="none" stroke="#000000" stroke-width="2" stroke-miterlimit="10" x1="32" y1="21" x2="32" y2="33"/>
	<circle fill="none" stroke="#000000" stroke-width="2" stroke-miterlimit="10" cx="32" cy="35" r="3"/>
</g>
</svg>
