<?xml version="1.0" encoding="utf-8"?>
<!-- Generator: Adobe Illustrator 16.0.0, SVG Export Plug-In . SVG Version: 6.00 Build 0)  -->
<!DOCTYPE svg PUBLIC "-//W3C//DTD SVG 1.1//EN" "http://www.w3.org/Graphics/SVG/1.1/DTD/svg11.dtd">
<svg version="1.1" id="Layer_1" xmlns="http://www.w3.org/2000/svg" xmlns:xlink="http://www.w3.org/1999/xlink" x="0px" y="0px"
	 width="64px" height="64px" viewBox="0 0 64 64" enable-background="new 0 0 64 64" xml:space="preserve">
<path fill="none" stroke="#000000" stroke-width="2" stroke-miterlimit="10" d="M30,38v6c0,0,0,19-7,19h9"/>
<path fill="none" stroke="#000000" stroke-width="2" stroke-miterlimit="10" d="M32,63h9c-7,0-7-19-7-19v-6"/>
<path fill="none" stroke="#000000" stroke-width="2" stroke-linejoin="bevel" stroke-miterlimit="10" d="M34,38
	c0,7.457,8.044,12.125,15.5,12.125c7.455,0,13.5-6.043,13.5-13.5s-6.045-13.5-13.5-13.5c-2.678,0-5.168,0.789-7.267,2.135
	c1.995-2.345,3.204-5.378,3.204-8.697c0-7.422-6.017-13.438-13.438-13.438S18.562,9.141,18.562,16.562
	c0,3.32,1.21,6.353,3.205,8.697c-2.1-1.345-4.59-2.135-7.268-2.135c-7.456,0-13.5,6.043-13.5,13.5s6.044,13.5,13.5,13.5
	C21.955,50.125,30,45.457,30,38"/>
</svg>
