<?xml version="1.0" encoding="utf-8"?>
<!-- Generator: Adobe Illustrator 16.0.0, SVG Export Plug-In . SVG Version: 6.00 Build 0)  -->
<!DOCTYPE svg PUBLIC "-//W3C//DTD SVG 1.1//EN" "http://www.w3.org/Graphics/SVG/1.1/DTD/svg11.dtd">
<svg version="1.1" id="Layer_1" xmlns="http://www.w3.org/2000/svg" xmlns:xlink="http://www.w3.org/1999/xlink" x="0px" y="0px"
	 width="64px" height="64px" viewBox="0 0 64 64" enable-background="new 0 0 64 64" xml:space="preserve">
<path fill="none" stroke="#000000" stroke-width="2" stroke-miterlimit="10" d="M11,48C5.477,48,1,43.523,1,38s4.477-10,10-10h2v20
	H11z"/>
<path fill="none" stroke="#000000" stroke-width="2" stroke-miterlimit="10" d="M53,28c5.523,0,10,4.477,10,10s-4.477,10-10,10h-2
	V28H53z"/>
<path fill="none" stroke="#000000" stroke-width="2" stroke-miterlimit="10" d="M13,31v-9c0,0,0-16,19-16s19,16,19,16v6"/>
<polyline fill="none" stroke="#000000" stroke-width="2" stroke-miterlimit="10" points="51,48 51,53 36,59 28,59 28,55 36,55 
	36,58 "/>
</svg>
