<?xml version="1.0" encoding="utf-8"?>
<!-- Generator: Adobe Illustrator 16.0.0, SVG Export Plug-In . SVG Version: 6.00 Build 0)  -->
<!DOCTYPE svg PUBLIC "-//W3C//DTD SVG 1.1//EN" "http://www.w3.org/Graphics/SVG/1.1/DTD/svg11.dtd">
<svg version="1.1" id="Layer_1" xmlns="http://www.w3.org/2000/svg" xmlns:xlink="http://www.w3.org/1999/xlink" x="0px" y="0px"
	 width="64px" height="64px" viewBox="0 0 64 64" enable-background="new 0 0 64 64" xml:space="preserve">
<g>
	<line fill="none" stroke="#000000" stroke-width="2" stroke-miterlimit="10" x1="46" y1="10" x2="18" y2="10"/>
	<polyline fill="none" stroke="#000000" stroke-width="2" stroke-miterlimit="10" points="12,10 1,10 1,58 63,58 63,10 52,10 	"/>
	<rect x="12" y="6" fill="none" stroke="#000000" stroke-width="2" stroke-miterlimit="10" width="6" height="8"/>
	<rect x="46" y="6" fill="none" stroke="#000000" stroke-width="2" stroke-miterlimit="10" width="6" height="8"/>
</g>
<path fill="none" stroke="#000000" stroke-width="2" stroke-miterlimit="10" d="M34.887,44H39c1.887,0,3-1,3-3c0-1-1-3-3-3
	c0-3.604-3.277-6-7-6c-3.295,0-6.413,2.978-7,6l0,0c-2,0-3,2-3,3c0,2,1,3,3,3h10.434"/>
<line fill="none" stroke="#000000" stroke-width="2" stroke-miterlimit="10" x1="1" y1="18" x2="63" y2="18"/>
</svg>
