<?xml version="1.0" encoding="utf-8"?>
<!-- Generator: Adobe Illustrator 16.0.0, SVG Export Plug-In . SVG Version: 6.00 Build 0)  -->
<!DOCTYPE svg PUBLIC "-//W3C//DTD SVG 1.1//EN" "http://www.w3.org/Graphics/SVG/1.1/DTD/svg11.dtd">
<svg version="1.1" id="Layer_1" xmlns="http://www.w3.org/2000/svg" xmlns:xlink="http://www.w3.org/1999/xlink" x="0px" y="0px"
	 width="64px" height="64px" viewBox="0 0 64 64" enable-background="new 0 0 64 64" xml:space="preserve">
<path fill="none" stroke="#000000" stroke-width="2" stroke-miterlimit="10" d="M50,27H14C6.82,27,1,32.82,1,40s5.82,13,13,13
	c4.6,0,8.632-2.396,10.943-6h14.113C41.368,50.604,45.4,53,50,53c7.18,0,13-5.82,13-13S57.18,27,50,27z"/>
<line fill="none" stroke="#000000" stroke-width="2" stroke-linejoin="bevel" stroke-miterlimit="10" x1="14" y1="32" x2="14" y2="48"/>
<line fill="none" stroke="#000000" stroke-width="2" stroke-linejoin="bevel" stroke-miterlimit="10" x1="22" y1="40" x2="6" y2="40"/>
<circle fill="none" stroke="#000000" stroke-width="2" stroke-linejoin="bevel" stroke-miterlimit="10" cx="50" cy="39.99" r="7"/>
<line fill="none" stroke="#000000" stroke-width="2" stroke-linejoin="bevel" stroke-miterlimit="10" x1="50" y1="33" x2="50" y2="47"/>
<line fill="none" stroke="#000000" stroke-width="2" stroke-linejoin="bevel" stroke-miterlimit="10" x1="57" y1="40" x2="43" y2="40"/>
<polyline fill="none" stroke="#000000" stroke-width="2" stroke-miterlimit="10" points="32,27 32,21 46,21 46,14 36,14 36,11 "/>
</svg>
