<?xml version="1.0" encoding="utf-8"?>
<!-- Generator: Adobe Illustrator 16.0.0, SVG Export Plug-In . SVG Version: 6.00 Build 0)  -->
<!DOCTYPE svg PUBLIC "-//W3C//DTD SVG 1.1//EN" "http://www.w3.org/Graphics/SVG/1.1/DTD/svg11.dtd">
<svg version="1.1" id="Layer_1" xmlns="http://www.w3.org/2000/svg" xmlns:xlink="http://www.w3.org/1999/xlink" x="0px" y="0px"
	 width="64px" height="64px" viewBox="0 0 64 64" enable-background="new 0 0 64 64" xml:space="preserve">
<path fill="none" stroke="#000000" stroke-width="2" stroke-miterlimit="10" d="M24,36c0,4.418,3.582,9,8,9h4"/>
<polyline fill="none" stroke="#000000" stroke-width="2" stroke-linejoin="bevel" stroke-miterlimit="10" points="33,49 36,45 
	33,41 "/>
<path fill="none" stroke="#000000" stroke-width="2" stroke-miterlimit="10" d="M42,36c0-4.418-3.582-9-8-9h-4"/>
<polyline fill="none" stroke="#000000" stroke-width="2" stroke-linejoin="bevel" stroke-miterlimit="10" points="33,23 30,27 
	33,31 "/>
<polyline fill="none" stroke="#000000" stroke-width="2" stroke-miterlimit="10" points="23,8 10,8 10,63 54,63 54,8 41,8 "/>
<polygon fill="none" stroke="#000000" stroke-width="2" stroke-miterlimit="10" points="36,5 36,1 28,1 28,5 24,5 22,13 42,13 40,5 
	"/>
</svg>
