<?xml version="1.0" encoding="utf-8"?>
<!-- Generator: Adobe Illustrator 16.0.0, SVG Export Plug-In . SVG Version: 6.00 Build 0)  -->
<!DOCTYPE svg PUBLIC "-//W3C//DTD SVG 1.1//EN" "http://www.w3.org/Graphics/SVG/1.1/DTD/svg11.dtd">
<svg version="1.1" id="Layer_1" xmlns="http://www.w3.org/2000/svg" xmlns:xlink="http://www.w3.org/1999/xlink" x="0px" y="0px"
	 width="64px" height="64px" viewBox="0 0 64 64" enable-background="new 0 0 64 64" xml:space="preserve">
<g>
	<polygon fill="none" stroke="#000000" stroke-width="2" stroke-miterlimit="10" points="32,1 26,1 26,10 20,12 14,6 6,14 12,20 
		10,26 1,26 1,38 10,38 12,44 6,50 14,58 20,52 26,54 26,63 32,63 38,63 38,54 44,52 50,58 58,50 52,44 54,38 63,38 63,26 54,26 
		52,20 58,14 50,6 44,12 38,10 38,1 	"/>
	<circle fill="none" stroke="#000000" stroke-width="2" stroke-miterlimit="10" cx="32" cy="32" r="6"/>
</g>
</svg>
