<?xml version="1.0" encoding="utf-8"?>
<!-- Generator: Adobe Illustrator 16.0.0, SVG Export Plug-In . SVG Version: 6.00 Build 0)  -->
<!DOCTYPE svg PUBLIC "-//W3C//DTD SVG 1.1//EN" "http://www.w3.org/Graphics/SVG/1.1/DTD/svg11.dtd">
<svg version="1.1" id="Layer_1" xmlns="http://www.w3.org/2000/svg" xmlns:xlink="http://www.w3.org/1999/xlink" x="0px" y="0px"
	 width="64px" height="64px" viewBox="0 0 64 64" enable-background="new 0 0 64 64" xml:space="preserve">
<g>
	<rect x="16" y="1" fill="none" stroke="#000000" stroke-width="2" stroke-miterlimit="10" width="32" height="62"/>
	<line fill="none" stroke="#000000" stroke-width="2" stroke-miterlimit="10" x1="28" y1="5" x2="36" y2="5"/>
	<line fill="none" stroke="#000000" stroke-width="2" stroke-miterlimit="10" x1="16" y1="51" x2="48" y2="51"/>
	<line fill="none" stroke="#000000" stroke-width="2" stroke-miterlimit="10" x1="16" y1="9" x2="48" y2="9"/>
	<circle fill="none" stroke="#000000" stroke-width="2" stroke-linejoin="bevel" stroke-miterlimit="10" cx="32" cy="57" r="2"/>
</g>
<path fill="none" stroke="#000000" stroke-width="2" stroke-miterlimit="10" d="M34.887,36H39c1.887,0,3-1,3-3c0-1-1-3-3-3
	c0-3.604-3.277-6-7-6c-3.295,0-6.413,2.978-7,6l0,0c-2,0-3,2-3,3c0,2,1,3,3,3h10.434"/>
</svg>
