<?xml version="1.0" encoding="utf-8"?>
<!-- Generator: Adobe Illustrator 16.0.0, SVG Export Plug-In . SVG Version: 6.00 Build 0)  -->
<!DOCTYPE svg PUBLIC "-//W3C//DTD SVG 1.0//EN" "http://www.w3.org/TR/2001/REC-SVG-20010904/DTD/svg10.dtd">
<svg version="1.0" id="Layer_1" xmlns="http://www.w3.org/2000/svg" xmlns:xlink="http://www.w3.org/1999/xlink" x="0px" y="0px"
	 width="64px" height="64px" viewBox="0 0 64 64" enable-background="new 0 0 64 64" xml:space="preserve">
<g>
	<polygon fill="none" stroke="#000000" stroke-width="2" stroke-miterlimit="10" points="52,62.999 52,0.999 26,0.999 12,14.999 
		12,63 16,61 20,63 24,61 28,63 32,61 36,63 40,61 44,63 48,61 	"/>
	<polyline fill="none" stroke="#000000" stroke-width="2" stroke-miterlimit="10" points="12,14.999 26,14.999 26,0.999 	"/>
</g>
<line fill="none" stroke="#000000" stroke-width="2" stroke-miterlimit="10" x1="24" y1="48" x2="24" y2="20"/>
<path fill="none" stroke="#000000" stroke-width="2" stroke-miterlimit="10" d="M24,21h6c0,0,10.018-0.703,10.018,8S30,37,30,37h-6"
	/>
<line fill="none" stroke="#000000" stroke-width="2" stroke-miterlimit="10" x1="20" y1="27" x2="44" y2="27"/>
<line fill="none" stroke="#000000" stroke-width="2" stroke-miterlimit="10" x1="20" y1="31" x2="44" y2="31"/>
</svg>
