<?xml version="1.0" encoding="utf-8"?>
<!-- Generator: Adobe Illustrator 16.0.0, SVG Export Plug-In . SVG Version: 6.00 Build 0)  -->
<!DOCTYPE svg PUBLIC "-//W3C//DTD SVG 1.0//EN" "http://www.w3.org/TR/2001/REC-SVG-20010904/DTD/svg10.dtd">
<svg version="1.0" id="Layer_1" xmlns="http://www.w3.org/2000/svg" xmlns:xlink="http://www.w3.org/1999/xlink" x="0px" y="0px"
	 width="64px" height="64px" viewBox="0 0 64 64" enable-background="new 0 0 64 64" xml:space="preserve">
<rect x="29" y="13" width="2" height="39"/>
<rect x="33" y="13" width="2" height="39"/>
<path fill="none" stroke="#000000" stroke-width="2" stroke-miterlimit="10" d="M40.988,23c0,0,0-6-9-6s-8,7-8,7s0,7,8,7
	c9,0,10.012,6,10.012,7c0,2,0.988,8-10.012,8c-9,0-8.988-4-8.988-5"/>
<path fill="none" stroke="#000000" stroke-width="2" stroke-miterlimit="10" d="M53.92,10.081c12.107,12.105,12.107,31.732,0,43.838
	c-12.106,12.108-31.734,12.108-43.839,0c-12.107-12.105-12.107-31.732,0-43.838C22.186-2.027,41.813-2.027,53.92,10.081z"/>
</svg>
