<?xml version="1.0" encoding="utf-8"?>
<!-- Generator: Adobe Illustrator 16.0.0, SVG Export Plug-In . SVG Version: 6.00 Build 0)  -->
<!DOCTYPE svg PUBLIC "-//W3C//DTD SVG 1.0//EN" "http://www.w3.org/TR/2001/REC-SVG-20010904/DTD/svg10.dtd">
<svg version="1.0" id="Layer_1" xmlns="http://www.w3.org/2000/svg" xmlns:xlink="http://www.w3.org/1999/xlink" x="0px" y="0px"
	 width="64px" height="64px" viewBox="0 0 64 64" enable-background="new 0 0 64 64" xml:space="preserve">
<path fill="none" stroke="#000000" stroke-width="2" stroke-miterlimit="10" d="M53.92,10.081c12.107,12.105,12.107,31.732,0,43.838
	c-12.106,12.108-31.734,12.108-43.84,0c-12.107-12.105-12.107-31.732,0-43.838C22.186-2.027,41.813-2.027,53.92,10.081z"/>
<line fill="none" stroke="#000000" stroke-width="2" stroke-miterlimit="10" x1="24" y1="48" x2="24" y2="16"/>
<path fill="none" stroke="#000000" stroke-width="2" stroke-miterlimit="10" d="M24,17h5.443c0,0,8.562-0.783,8.562,7
	s-8.562,7-8.562,7H24"/>
<path fill="none" stroke="#000000" stroke-width="2" stroke-miterlimit="10" d="M24,31h6.221c0,0,9.781-0.893,9.781,8
	s-9.781,8-9.781,8H24"/>
<rect x="29" y="13" width="2" height="39"/>
</svg>
