<svg xmlns="http://www.w3.org/2000/svg" width="18" height="18" viewBox="0 0 18 18">
  <defs>
    <style>
      .cls-1 {
        fill: #fff;
        fill-rule: evenodd;
      }
    </style>
  </defs>
  <path class="cls-1" d="M1250,267a9,9,0,1,1,9-9A9,9,0,0,1,1250,267Zm-2.81-12.782a1.688,1.688,0,1,0,1.68,1.687A1.69,1.69,0,0,0,1247.19,254.218Zm5.62,0a1.688,1.688,0,1,0,1.69,1.687A1.682,1.682,0,0,0,1252.81,254.218Zm0.73,5.16a3.966,3.966,0,0,1-7.09-.008l-1.9.666a5.976,5.976,0,0,0,10.9,0Z" transform="translate(-1241 -249)"/>
</svg>
