<?xml version="1.0" encoding="utf-8"?>
<!-- Generator: Adobe Illustrator 16.0.0, SVG Export Plug-In . SVG Version: 6.00 Build 0)  -->
<!DOCTYPE svg PUBLIC "-//W3C//DTD SVG 1.0//EN" "http://www.w3.org/TR/2001/REC-SVG-20010904/DTD/svg10.dtd">
<svg version="1.0" id="Layer_1" xmlns="http://www.w3.org/2000/svg" xmlns:xlink="http://www.w3.org/1999/xlink" x="0px" y="0px"
	 width="64px" height="64px" viewBox="0 0 64 64" enable-background="new 0 0 64 64" xml:space="preserve">
<polyline fill="none" stroke="#000000" stroke-width="2" stroke-miterlimit="10" points="23,41 1,41 1,1 41,1 41,23 "/>
<g>
	<g>
		<line fill="none" stroke="#000000" stroke-width="2" stroke-miterlimit="10" x1="41" y1="23" x2="43" y2="23"/>
		
			<line fill="none" stroke="#000000" stroke-width="2" stroke-miterlimit="10" stroke-dasharray="4,2" x1="45" y1="23" x2="60" y2="23"/>
		<polyline fill="none" stroke="#000000" stroke-width="2" stroke-miterlimit="10" points="61,23 63,23 63,25 		"/>
		
			<line fill="none" stroke="#000000" stroke-width="2" stroke-miterlimit="10" stroke-dasharray="4,2" x1="63" y1="27" x2="63" y2="60"/>
		<polyline fill="none" stroke="#000000" stroke-width="2" stroke-miterlimit="10" points="63,61 63,63 61,63 		"/>
		
			<line fill="none" stroke="#000000" stroke-width="2" stroke-miterlimit="10" stroke-dasharray="4,2" x1="59" y1="63" x2="26" y2="63"/>
		<polyline fill="none" stroke="#000000" stroke-width="2" stroke-miterlimit="10" points="25,63 23,63 23,61 		"/>
		
			<line fill="none" stroke="#000000" stroke-width="2" stroke-miterlimit="10" stroke-dasharray="4,2" x1="23" y1="59" x2="23" y2="44"/>
		<line fill="none" stroke="#000000" stroke-width="2" stroke-miterlimit="10" x1="23" y1="43" x2="23" y2="41"/>
	</g>
</g>
<polyline fill="none" stroke="#000000" stroke-width="2" stroke-miterlimit="10" points="23,41 23,23 41,23 "/>
</svg>
