<?xml version="1.0" encoding="utf-8"?>
<!-- Generator: Adobe Illustrator 16.0.0, SVG Export Plug-In . SVG Version: 6.00 Build 0)  -->
<!DOCTYPE svg PUBLIC "-//W3C//DTD SVG 1.0//EN" "http://www.w3.org/TR/2001/REC-SVG-20010904/DTD/svg10.dtd">
<svg version="1.0" id="Layer_1" xmlns="http://www.w3.org/2000/svg" xmlns:xlink="http://www.w3.org/1999/xlink" x="0px" y="0px"
	 width="64px" height="64px" viewBox="0 0 64 64" enable-background="new 0 0 64 64" xml:space="preserve">
<g>
	<g>
		<line fill="none" stroke="#000000" stroke-width="2" stroke-miterlimit="10" x1="41" y1="23" x2="41" y2="25"/>
		
			<line fill="none" stroke="#000000" stroke-width="2" stroke-miterlimit="10" stroke-dasharray="4,2" x1="41" y1="27" x2="41" y2="38"/>
		<polyline fill="none" stroke="#000000" stroke-width="2" stroke-miterlimit="10" points="41,39 41,41 39,41 		"/>
		
			<line fill="none" stroke="#000000" stroke-width="2" stroke-miterlimit="10" stroke-dasharray="4,2" x1="37" y1="41" x2="26" y2="41"/>
		<line fill="none" stroke="#000000" stroke-width="2" stroke-miterlimit="10" x1="25" y1="41" x2="23" y2="41"/>
	</g>
</g>
<polyline fill="none" stroke="#000000" stroke-width="2" stroke-miterlimit="10" points="23,41 1,41 1,1 41,1 41,23 "/>
<polyline fill="none" stroke="#000000" stroke-width="2" stroke-miterlimit="10" points="41,23 63,23 63,63 23,63 23,41 "/>
<g>
	<g>
		<line fill="none" stroke="#000000" stroke-width="2" stroke-miterlimit="10" x1="23" y1="41" x2="23" y2="39"/>
		
			<line fill="none" stroke="#000000" stroke-width="2" stroke-miterlimit="10" stroke-dasharray="4,2" x1="23" y1="37" x2="23" y2="26"/>
		<polyline fill="none" stroke="#000000" stroke-width="2" stroke-miterlimit="10" points="23,25 23,23 25,23 		"/>
		
			<line fill="none" stroke="#000000" stroke-width="2" stroke-miterlimit="10" stroke-dasharray="4,2" x1="27" y1="23" x2="38" y2="23"/>
		<line fill="none" stroke="#000000" stroke-width="2" stroke-miterlimit="10" x1="39" y1="23" x2="41" y2="23"/>
	</g>
</g>
</svg>
